# xmcd
#
# Track frame offsets: 
#        150
#        21280
#        41635
#        57455
#        85425
#        102075
#        136542
#        155890
#        176345
#        195050
#        219187
#        238235
#
# Disc length: 3405 seconds
#
# Revision: 3
# Processed by: cddbd v1.5.2PL0 Copyright (c) Steve Scherf et al.
# Submitted via: ExactAudioCopy v1.0b1
#
DISCID=990d4b0c
DTITLE=Hobo Blues Band - Csintalan lányok, rossz fiúk
DYEAR=1994
DGENRE=Blues
TTITLE0=A három testör D'Artagnan ellen
TTITLE1=Barbie baba blues
TTITLE2=Taxi blues
TTITLE3=Nyolc perces szerelem
TTITLE4=Félamerikai vagyok
TTITLE5=Hû asszony blues
TTITLE6=Rossz asszony blues
TTITLE7=Lili bárónõ
TTITLE8=Hibás a térkép
TTITLE9=Veteránok
TTITLE10=Csintalan lányok, rossz fiúk
TTITLE11=A cirkusz megy tovább
EXTD=by Lajos
EXTT0=
EXTT1=
EXTT2=
EXTT3=
EXTT4=
EXTT5=
EXTT6=
EXTT7=
EXTT8=
EXTT9=
EXTT10=
EXTT11=
PLAYORDER=
